<?xml version="1.0" encoding="iso-8859-1"?>
<!-- Generator: Adobe Illustrator 19.1.0, SVG Export Plug-In . SVG Version: 6.00 Build 0)  -->
<svg xmlns="http://www.w3.org/2000/svg" xmlns:xlink="http://www.w3.org/1999/xlink" version="1.1" id="Capa_1" x="0px" y="0px" viewBox="0 0 179.733 179.733" style="enable-background:new 0 0 179.733 179.733;" xml:space="preserve" width="512px" height="512px">
<g id="XMLID_12_">
	<path id="XMLID_22_" d="M50.011,75.388c1.271,5.086,3.426,9.483,6.906,13.194   c-0.38-0.675-0.763-1.349-1.139-2.025c-1.566-2.813-3.008-5.684-3.875-8.803c-1.233-4.44-0.971-8.65,2.167-12.524   c-2.958,0.044-5.027,1.336-6.674,3.443c-1.434,1.834-2.425,3.929-3.48,5.981c-1.862,3.621-3.811,7.184-6.242,10.616   c1.11-0.559,2.243-1.077,3.323-1.688c1.085-0.614,2.117-1.321,3.18-1.992c0.369,0.494-0.036,0.701-0.228,0.93   C37.1,90.646,28.372,95.065,17.745,95.356C12.366,95.503,7.273,94.224,3.027,90.6C1.763,89.521,0.679,88.295,0,86.677   c3.084,2.703,6.287,5.145,10.914,5.954C3.575,87.271,1.053,79.958,0.469,71.596c3.818,5.507,8.555,9.521,15.478,10.165   c-3.891-1.288-7.578-2.879-10.007-6.594c0.632-0.217,0.842,0.201,1.107,0.426c5.743,4.871,12.302,5.148,19.176,3.301   c1.424-0.383,2.329-1.701,3.322-2.763c2.811-3.008,5.338-6.271,8.297-9.149c4.398-4.277,9.479-6.873,15.77-6.623   c1.278,0.051,7.348-1.028,8.506-1.511c5.656-2.361,11.484-2.237,17.317-1.003c5.447,1.152,10.829,2.604,16.262,3.829   c5.377,1.213,10.814,1.599,16.299,0.796c0.488-0.072,0.984-0.094,1.505-0.438c-2.536-0.508-4.995-0.956-7.432-1.502   c-2.746-0.616-5.458-1.366-7.964-2.696c-0.873-0.463-1.755-0.947-2.244-2.169c1.787,0.436,3.349,0.946,4.951,1.184   c5.298,0.787,10.597,0.929,15.836-0.449c0.63-0.166,1.667-0.193,1.632-1.016c-0.036-0.858-1.075-0.953-1.777-1.106   c-2.942-0.642-5.887-0.431-8.821,0.112c-0.628,0.116-1.257,0.23-2.03,0.371c0.303-1.22,1.192-1.618,2.004-2.025   c2.38-1.193,4.973-1.477,7.58-1.74c3.084-0.312,6.164-0.17,9.264-0.039c-2.263-1.017-4.524-1.954-6.683-3.116   c-0.888-0.478-1.748-0.991-2.493-1.678c-0.328-0.302-0.826-0.637-0.603-1.106c0.274-0.576,0.823-0.145,1.192-0.028   c2.874,0.913,5.781,1.7,8.755,2.194c4.217,0.7,8.45,1.178,12.726,0.508c0.444-0.07,0.906-0.09,1.384-0.597   c-1.65-0.961-3.45-0.872-5.176-1.044c-1.795-0.179-3.572,0.245-5.54,0.411c0.513-1.256,1.53-1.497,2.424-1.797   c2.592-0.869,5.288-1.149,8.007-1.223c3.417-0.094,6.827,0.051,10.229,0.37c0.245,0.023,0.491,0.035,0.769-0.104   c-3.436-2.083-7.279-2.364-11.208-2.429c1.733-1.095,3.659-1.349,5.578-1.399c5.914-0.152,11.257,1.832,16.258,4.765   c1.435,0.842,2.477,0.989,3.701-0.18c0.389-0.372,0.914-1.067,1.52-0.677c0.534,0.343,0.211,1.115,0.243,1.7   c0.027,0.488-0.147,0.995,0.189,1.548c1.027-0.478,1.533-1.672,2.962-2.187c-0.635,2.025-1.128,3.79-1.749,5.51   c-0.37,1.025-0.258,1.796,0.538,2.563c0.829,0.799,1.519,1.743,2.339,2.554c0.937,0.926,1.519,1.953,1.526,3.311   c0.005,1.106,0.73,1.962,1.242,2.871c2.29,4.071,4.568,8.147,6.585,12.364c0.493,1.031,0.993,2.023-0.331,2.828   c-0.079,0.048-0.158,0.154-0.17,0.243c-0.323,2.313-2.263,2.268-3.898,2.773c-1.145,0.354-1.944,0.098-2.636-0.796   c-0.184-0.238-0.472-0.426-0.576-0.691c-1.149-2.933-3.903-4.153-6.199-5.864c-0.966-0.72-1.946-1.428-2.858-2.212   c-0.693-0.596-1.413-0.94-2.358-0.747c0.284,0.307,0.868,0.12,1.075,0.728c-2.315,0.655-4.557,0.304-6.726-0.439   c-1.08-0.37-1.613-0.117-2.199,0.797c-2.059,3.213-4.193,6.378-6.316,9.55c-0.347,0.518-0.605,1.026-0.53,1.673   c0.428,3.68-0.231,7.231-1.636,10.595c-0.627,1.503-0.278,2.387,0.766,3.409c2.655,2.6,5.242,5.27,7.845,7.924   c0.263,0.268,0.659,0.472,0.656,1.181c-1.229-0.882-2.348-1.671-3.452-2.481c-2.309-1.693-4.609-3.397-6.914-5.095   c-0.283-0.208-0.565-0.422-0.867-0.598c-0.363-0.211-0.698-0.096-0.919,0.231c-0.24,0.356,0.08,0.549,0.304,0.731   c0.466,0.381,0.938,0.758,1.427,1.11c3.261,2.347,6.534,4.679,9.967,6.773c0.621,0.378,1.083,0.85,1.354,1.548   c0.967,2.489,1.787,4.957,1.325,7.73c-0.617,3.7,0.029,7.409,0.242,11.109c0.05,0.866-0.095,1.544-0.709,2.183   c-2.89,3.004-5.738,6.048-8.627,9.052c-1.041,1.082-1.321,1.031-1.749-0.411c-0.6-2.019-1.157-4.057-1.592-6.116   c-0.438-2.074,2.263-4.349,4.23-3.586c1.254,0.486,1.693-0.083,1.472-1.134c-0.32-1.52,0.212-2.621,0.87-3.982   c1.527-3.158,1.371-6.53-0.124-9.754c-0.569-1.227-1.782-1.742-2.921-2.256c-4.501-2.03-9.244-3.349-13.994-4.634   c-2.555-0.691-5.124-1.334-7.816-2.031c0.362,0.957,1.071,1.082,1.735,1.285c3.169,0.965,6.331,1.955,9.509,2.889   c0.799,0.235,1.213,0.652,1.543,1.438c0.911,2.174,1.906,4.32,2.993,6.411c0.579,1.114,0.554,2.073-0.048,3.116   c-1.211,2.097-2.632,3.568-5.418,3.537c-3.282-0.037-6.392,1.189-9.472,2.267c-1.596,0.559-2.987,0.724-4.717-0.038   c-2.979-1.311-6.287-0.943-9.487-0.916c-1.028,0.009-2.324,0.642-2.997-0.243c-0.724-0.952,0.12-2.113,0.588-3.079   c0.611-1.261,1.311-2.489,2.071-3.667c1.385-2.145,3.802-2.214,5.389-0.167c0.392,0.506,0.679,1.117,0.908,1.72   c0.46,1.211,1.269,1.491,2.183,0.66c1.07-0.972,2.037-0.782,3.27-0.373c3.378,1.121,6.733,0.91,9.938-0.704   c1.44-0.725,1.537-1.222,0.39-2.351c-3.328-3.275-6.903-6.326-9.992-9.81c-2.027-2.287-4.256-3.222-7.179-3.635   c-7.963-1.126-15.809-2.841-23.279-5.952c-3.349-1.395-6.57-3.038-9.41-5.323c-0.839-0.675-1.404-0.63-2.181,0.102   c-1.071,1.009-2.031,2.096-2.814,3.324c-3.454,5.419-5.223,11.47-6.475,17.706c0.752-2.319,1.427-4.666,2.272-6.951   c1.644-4.447,3.722-8.668,6.759-12.368c0.818-0.996,1.521-1.327,2.546-0.277c0.626,0.642,1.414,1.123,2.111,1.698   c1.543,1.273,1.544,1.308,0.322,2.848c-3.003,3.784-5.747,7.742-8.019,12.012c-0.374,0.702-0.795,1.392-0.994,2.663   c2.903-5.363,6.13-9.855,11.538-12.324c0.279,0.623-0.109,0.714-0.312,0.87c-4.887,3.76-7.615,8.842-8.973,14.738   c-0.419,1.821-0.129,3.46,1.556,4.657c1.103,0.783,2.07,1.756,3.159,2.56c2.123,1.565,4.108,3.159,4.705,5.979   c0.259,1.222,1.27,2.14,2.163,3.035c1.086,1.09,1.858,2.358,2.204,3.875c0.182,0.796-0.025,1.191-0.909,1.322   c-2.306,0.341-4.598,0.392-6.891-0.051c-2.018-0.39-2.526-1.214-1.612-3.055c0.629-1.266,0.345-1.833-0.941-2.161   c-1.12-0.286-1.841-0.742-1.39-2.206c0.299-0.972-0.42-1.917-0.979-2.759c-1.408-2.122-3.265-3.831-5.261-5.351   c-1.904-1.45-3.624-2.9-3.345-5.654c-0.424,4.445,1.233,8.314,2.96,12.175c0.688,1.539,1.709,2.815,2.819,4.056   c1.723,1.926,3.118,4.065,3.896,6.555c0.56,1.795,0.305,2.183-1.516,2.292c-2.264,0.135-4.507-0.018-6.735-0.49   c-0.888-0.188-1.219-0.645-1.065-1.467c0.173-0.92,0.081-1.915,0.747-2.708c0.763-0.908,0.297-1.614-0.591-1.825   c-1.572-0.375-1.84-1.45-1.974-2.791c-0.539-5.373-2.58-9.981-7.007-13.306c-0.654-0.491-0.82-1.032-0.72-1.813   c0.363-2.835,0.797-5.669,0.962-8.518c0.142-2.45-0.222-4.902-0.681-7.322c-0.196-1.03-1.082-1.533-1.75-2.192   c-3.996-3.95-7.447-8.288-9.685-13.499c-0.84-1.956-1.341-3.995-1.507-6.112C49.483,77.013,49.393,76.254,50.011,75.388z" fill="#000000"/>
</g>
<g>
</g>
<g>
</g>
<g>
</g>
<g>
</g>
<g>
</g>
<g>
</g>
<g>
</g>
<g>
</g>
<g>
</g>
<g>
</g>
<g>
</g>
<g>
</g>
<g>
</g>
<g>
</g>
<g>
</g>
</svg>
