<?xml version="1.0" encoding="iso-8859-1"?>
<!-- Generator: Adobe Illustrator 19.1.0, SVG Export Plug-In . SVG Version: 6.00 Build 0)  -->
<svg xmlns="http://www.w3.org/2000/svg" xmlns:xlink="http://www.w3.org/1999/xlink" version="1.1" id="Capa_1" x="0px" y="0px" viewBox="0 0 140.951 140.951" style="enable-background:new 0 0 140.951 140.951;" xml:space="preserve" width="512px" height="512px">
<g id="XMLID_15_">
	<path id="XMLID_1058_" d="M76.86,0.363c2.253,0.368,4.522,0.662,6.757,1.12   c3.294,0.676,6.592,1.352,9.717,2.682c1.241,0.528,2.541,0.922,3.804,1.419c3.035,1.196,5.91,2.68,8.745,4.28   c2.062,1.163,4.043,2.447,5.982,3.788c1.673,1.157,3.215,2.506,4.801,3.787c1.834,1.48,3.455,3.192,5.062,4.902   c2.243,2.388,4.301,4.94,6.229,7.596c1.91,2.63,3.5,5.459,5.1,8.273c1.048,1.843,1.849,3.836,2.659,5.803   c1.76,4.276,3.015,8.695,3.904,13.244c0.397,2.03,0.461,4.094,0.899,6.088c0.628,2.861,0.337,5.728,0.422,8.592   c0.101,3.438-0.51,6.826-1.049,10.184c-0.694,4.317-1.776,8.596-3.4,12.668c-1.358,3.403-2.814,6.773-4.696,9.958   c-1.515,2.565-3.049,5.109-4.861,7.463c-1.924,2.5-3.962,4.906-6.159,7.19c-2.487,2.586-5.128,4.98-8.009,7.091   c-2.43,1.78-4.953,3.435-7.555,4.97c-2.473,1.459-5.038,2.738-7.662,3.873c-2.198,0.951-4.478,1.74-6.772,2.434   c-3.938,1.191-7.96,2.044-12.058,2.46c-5.125,0.521-10.253,0.422-15.388,0.042c-2.84-0.21-5.602-0.841-8.349-1.456   c-2.967-0.665-5.888-1.572-8.763-2.64c-2.288-0.85-4.549-1.752-6.743-2.794c-2.96-1.406-5.808-3.021-8.541-4.857   c-2.381-1.6-4.542-3.466-6.834-5.17c-1.182-0.879-2.134-1.996-3.187-3.006c-1.3-1.248-2.502-2.599-3.734-3.917   c-1.893-2.026-3.515-4.263-5.137-6.508c-2.528-3.499-4.5-7.308-6.191-11.24c-1.034-2.404-1.967-4.871-2.738-7.403   c-1.158-3.802-2.001-7.637-2.551-11.568C0.403,78.579,0.277,77.414,0,76.288c0-4.049,0-8.099,0-12.148   c0.292-1.042,0.432-2.14,0.552-3.184c0.333-2.901,0.939-5.737,1.619-8.559c0.962-3.987,2.401-7.808,4.113-11.541   c1.291-2.816,2.732-5.533,4.368-8.161c2.767-4.444,6.018-8.481,9.766-12.135c2.214-2.158,4.512-4.201,6.994-6.053   c1.857-1.386,3.775-2.675,5.714-3.932c2.101-1.363,4.36-2.455,6.624-3.512c2.343-1.094,4.767-1.998,7.191-2.91   c2.843-1.069,5.764-1.798,8.701-2.446c2.754-0.608,5.576-0.908,8.367-1.344C68.294,0.363,72.577,0.363,76.86,0.363z    M125.461,106.411c0.96-1.211,1.778-2.521,2.515-3.871c1.427-2.612,2.692-5.291,3.795-8.072c1.318-3.324,2.341-6.698,3.114-10.181   c0.782-3.526,1.314-7.087,1.457-10.677c0.12-3.01,0.178-6.023-0.333-9.055c-0.436-2.589-0.62-5.227-1.167-7.812   c-0.747-3.528-1.788-6.944-3.14-10.3c-1.146-2.843-2.413-5.612-3.911-8.271c-1.951-3.465-4.231-6.717-6.78-9.773   c-2.047-2.454-4.231-4.791-6.679-6.839c-2.311-1.933-4.664-3.827-7.181-5.499c-1.928-1.281-3.859-2.58-5.959-3.548   c-1.927-0.888-3.769-1.937-5.792-2.664c-2.686-0.965-5.333-2.021-8.076-2.845c-3.327-1-6.752-1.511-10.163-1.851   C71.436,4.581,65.677,4.53,59.969,5.587c-1.529,0.283-3.096,0.396-4.598,0.776c-3.862,0.979-7.636,2.229-11.327,3.757   c-1.868,0.774-3.632,1.73-5.42,2.641c-2.92,1.488-5.675,3.271-8.294,5.238c-1.721,1.293-3.373,2.688-4.974,4.128   c-1.836,1.652-3.499,3.469-5.129,5.339c-1.377,1.58-2.657,3.211-3.877,4.901c-1.7,2.356-3.074,4.904-4.477,7.443   c-1.751,3.169-2.914,6.563-4.156,9.936c-0.633,1.717-0.98,3.502-1.42,5.269c-0.939,3.771-1.633,7.579-1.766,11.457   C4.37,71.162,4.383,75.84,5.191,80.51c0.511,2.953,1.088,5.894,1.951,8.738c1.018,3.354,2.252,6.653,3.833,9.817   c1.179,2.359,2.471,4.659,3.901,6.846c1.619,2.476,3.364,4.893,5.324,7.139c1.807,2.071,3.708,4.062,5.756,5.871   c2.57,2.27,5.303,4.35,8.185,6.247c2.723,1.793,5.557,3.374,8.489,4.738c3.473,1.616,7.11,2.836,10.812,3.894   c4.28,1.223,8.61,2.001,13.037,2.199c7.767,0.348,15.461-0.117,22.919-2.555c2.426-0.793,4.876-1.557,7.208-2.578   c3.43-1.502,6.778-3.203,9.888-5.313c2.621-1.778,5.187-3.625,7.515-5.795c2.494-2.324,4.753-4.87,7.086-7.344   c0.718-0.761,1.646-1.468,1.756-2.665C123.824,108.714,124.682,107.594,125.461,106.411z" fill="#000000"/>
	<path id="XMLID_1031_" d="M122.854,109.747c-2.598,3.042-5.687,5.434-9.378,7.004   c-0.525,0.223-1.133,0.274-1.71,0.347c-3.732,0.471-7.453,1.124-11.242,0.789c-0.647-0.057-1.326-0.007-1.856-0.645   c0.995-0.502,1.889-1.087,3.035-1.125c3.059-0.1,5.732-1.541,8.538-2.52c0.531-0.185,0.541-0.567,0.471-1.034   c-0.191-1.269-0.205-2.556-0.316-3.829c-0.243-2.782,1.145-4.829,2.784-6.778c1.606-1.91,3.692-3.285,5.618-4.837   c0.507-0.409,0.951-0.898,1.404-1.371c2.803-2.926,4.115-6.45,4.17-10.47c0.013-0.943-0.502-1.13-1.303-0.878   c-1.846,0.58-3.806-0.117-4.802-1.708c-1.017-1.625-0.68-3.968,0.759-5.346c0.447-0.428,0.859-0.88,1.43-1.174   c1.062-0.547,1.134-0.966,0.277-1.839c-0.764-0.778-1.436-1.614-2.049-2.513c-0.261-0.382-0.51-0.831-0.246-1.166   c0.383-0.486,0.781,0.037,1.081,0.256c0.744,0.542,1.438,1.146,2.015,1.883c0.443,0.565,0.799,0.818,1.257-0.143   c1.063-2.232,2.22-4.496,4.42-5.813c1.688-1.01,3.553-1.78,5.621-1.578c1.162,0.113,0.671,0.829,0.37,1.329   c-0.72,1.196-1.388,2.417-2.046,3.648c-1.163,2.175-1.799,4.494-2.35,6.885c-1.409,6.122-1.038,12.274-0.609,18.446   c0.115,1.662-0.252,3.289-0.641,4.927c-0.49,2.061-1.432,3.931-2.091,5.914C124.682,107.594,123.824,108.714,122.854,109.747z    M114.504,106.144c-0.021,1.641,0.901,2.594,2.468,2.551c1.037-0.029,2.065-0.996,2.103-1.98c0.054-1.381-1.061-2.715-2.279-2.725   C115.649,103.981,114.518,105.044,114.504,106.144z" fill="#000000"/>
	<path id="XMLID_1026_" d="M61.618,46.73c-0.903-1.698-0.585-3.534-0.889-5.266   c-0.666-3.797-2.553-6.858-5.522-9.263c-2.397-1.942-5.148-2.978-8.188-3.613c-2.558-0.535-5.079-0.53-7.634-0.582   c-0.989-0.02-1.472,0.283-1.485,1.401c-0.026,2.181-0.956,3.404-3.044,3.582c-1.576,0.134-2.887-0.844-3.661-2.238   c-0.406-0.73-0.805-0.812-1.487-0.553c-1.531,0.583-2.862,1.527-4.233,2.381c-2.393,1.491-4.244,3.577-5.948,5.792   c-1.334,1.733-2.267,3.681-2.977,5.742c-1.146,3.325-1.675,6.739-0.894,10.193c0.915,4.046,2.817,7.519,6.138,10.222   c4.016,3.27,8.575,4.78,13.649,5.495c4.095,0.577,8.245,0.15,12.288,1.028c4.841,1.051,8.866,3.391,11.603,7.635   c0.413,0.64,0.605,1.424,0.89,2.146c0.089,0.224,0.12,0.476-0.095,0.643c-0.269,0.21-0.49,0.037-0.726-0.125   c-0.79-0.543-1.195-1.407-1.773-2.12c-2.269-2.797-5.004-4.793-8.661-5.3c-1.343-0.186-2.31,0.41-2.592,1.584   c-0.338,1.41,0.215,2.608,1.432,3.072c0.945,0.36,1.914,0.298,2.876,0.09c0.683-0.148,1.356-0.346,2.034-0.519   c0.502-0.128,0.712-0.027,0.614,0.575c-0.53,3.242-5.286,5.443-8.149,3.752c-3.443-2.034-4.424-5.005-2.787-8.673   c0.333-0.746-0.062-0.7-0.523-0.718c-1.915-0.076-3.689,0.587-5.403,1.265c-2.143,0.848-3.945,2.282-5.363,4.121   c-0.697,0.904-0.53,1.142,0.58,1.249c6.231,0.603,9.994,4.75,9.172,11.207c-0.109,0.854-0.167,1.703-0.162,2.56   c0.005,1.013,0.122,2.035,1.207,2.438c1.077,0.4,2.202,0.227,3.081-0.525c1.206-1.033,2.226-2.26,3.211-3.51   c2.194-2.785,4.86-5.024,7.81-6.988c2.864-1.907,5.972-2.954,9.321-3.649c1.853-0.384,3.816-0.551,5.549-1.61   c2.062-1.26,3.866-4.293,2.236-6.588c-0.502-0.707-0.578-1.685-1.149-2.404c-0.122-0.154-0.129-0.369-0.003-0.546   c0.136-0.191,0.349-0.182,0.529-0.115c2.687,0.999,5.19,2.316,5.89,5.37c0.649,2.834,0.215,5.554-1.822,7.835   c-0.179,0.2-0.27,0.486-0.464,0.665c-0.553,0.509-0.361,0.756,0.226,1.065c4.157,2.181,7.044,5.504,9.024,9.751   c0.791,1.697,0.834,3.541,1.519,5.23c0.094,0.232,0.146,0.573-0.218,0.685c-0.335,0.103-0.513-0.152-0.618-0.403   c-0.284-0.678-0.592-1.354-0.795-2.059c-0.896-3.108-2.972-5.394-5.271-7.491c-2.151-1.962-4.806-3.06-7.514-4.019   c-0.787-0.279-1.611-0.24-2.428-0.242c-0.666-0.002-1.29,0.134-1.46,0.882c-0.173,0.761-0.262,1.537,0.403,2.175   c0.811,0.778,1.786,1.024,2.874,1.024c0.359,0,0.87-0.185,1.039,0.272c0.164,0.442-0.161,0.812-0.498,1.098   c-1.426,1.209-2.968,2.177-4.944,1.848c-2.703-0.45-5.279-3.608-3.841-6.764c0.112-0.246,0.188-0.512,0.253-0.775   c0.112-0.452,0.043-0.68-0.52-0.489c-3.583,1.215-6.905,2.94-9.891,5.253c-2.739,2.122-4.922,4.793-6.774,7.69   c-0.643,1.006-1.037,2.268-1.155,3.512c-0.169,1.78-0.218,3.571-0.349,5.355c-0.061,0.823,0.311,0.919,0.983,0.718   c1.661-0.497,3.064-1.498,4.51-2.381c2.537-1.548,4.602-3.626,6.134-6.186c1.175-1.964,2.107-4.034,2.866-6.209   c0.582-1.669,0.717-3.411,1.206-5.081c0.097-0.329,0.115-0.784,0.547-0.797c0.496-0.015,0.402,0.514,0.483,0.801   c0.616,2.179,0.685,4.385,0.223,6.607c-0.079,0.38-0.083,0.776-0.171,1.153c-0.205,0.877,0.248,1.002,0.865,0.678   c1.608-0.845,3.368-0.933,5.101-1.032c1.901-0.109,3.777-0.351,5.66-0.593c1.853-0.238,3.499-0.981,5.12-1.825   c0.446-0.233,0.898-0.628,1.395-0.403c0.578,0.262,0.345,0.893,0.336,1.365c-0.019,1.049-0.156,2.066-0.613,3.055   c-0.65,1.407-0.364,2.097,1.143,2.855c4.117,2.071,6.964,5.442,9.48,9.159c0.189,0.28,0.317,0.639,0.357,0.975   c0.093,0.79-0.381,1.126-1.062,0.731c-3.178-1.843-6.727-2.412-10.241-3.231c-5.645-1.315-11.296-1.141-16.92-0.372   c-4.778,0.653-9.518,1.636-14.245,2.662c-5.928,1.287-11.947,2.271-18.01,1.015c-2.236-0.463-4.415-1.299-6.468-2.413   c-1.91-1.036-3.699-2.207-5.381-3.585c-2.055-1.685-3.714-3.701-5.025-5.965c-2.547-4.399-3.767-9.176-3.403-14.272   c0.254-3.549,1.081-6.961,3.086-9.989c0.171-0.258,0.3-0.556,0.616-0.677c0.432-0.166,0.786-0.171,0.776,0.441   c-0.003,0.154-0.016,0.315-0.061,0.462c-0.83,2.668,0.675,4.157,2.649,5.529c2.627,1.825,4.57,4.092,5.388,7.391   c0.772,3.115,0.583,6.252,0.909,9.369c0.263,2.517,1.085,4.818,2.198,7.048c0.146,0.292,0.352,0.575,0.698,0.526   c0.368-0.052,0.377-0.448,0.485-0.729c1.225-3.205,3.861-4.395,6.597-3.756c1.287,0.301,2.26,1.102,2.736,2.174   c0.591,1.331,1.721,2.711,0.652,4.346c-0.166,0.254-0.225,0.653-0.611,0.595c-0.357-0.054-0.389-0.437-0.491-0.729   c-0.402-1.151-0.974-2.138-2.35-2.275c-1.662-0.166-2.501,0.389-2.991,1.95c-0.281,0.898,0.812,2.267,2.099,2.535   c2.335,0.486,4.704,0.6,7.078,0.428c1.51-0.11,3.033-0.172,4.508-0.576c0.27-0.074,0.652-0.014,0.469-0.556   c-0.8-2.364-1.106-4.806-1.064-7.297c0.038-2.268,0.037-1.783-1.823-1.579c-1.906,0.209-3.817,0.422-5.686-0.042   c-3.168-0.785-5.589-2.592-7.388-5.381c-2.619-4.061-2.3-8.433-1.622-12.849c0.284-1.849,0.279-2.113-1.6-2.509   c-5.104-1.076-8.921-4.061-11.788-8.239c-1.252-1.825-2.134-3.898-2.705-6.135c-0.993-3.891-1.104-7.803-0.489-11.678   c0.467-2.944,1.115-5.893,2.372-8.687c0.854-1.899,1.526-3.9,2.566-5.704c1.331-2.31,2.87-4.458,4.813-6.361   c2.294-2.247,4.885-4.065,7.5-5.853c1.551-1.06,3.339-1.768,5.001-2.671c2.511-1.366,5.072-2.664,6.645-5.244   c0.584-0.958,1.226-1.866,1.553-2.961c0.178-0.596,0.49-1.331,1.168-1.261c0.609,0.063,0.941,0.745,1.081,1.388   c0.287,1.327,0.729,2.643,0.813,3.983c0.068,1.092-0.238,2.223-0.477,3.315c-0.239,1.093,0.13,1.586,1.233,1.69   c3.748,0.353,7.178,1.724,10.305,3.71c4.442,2.821,6.916,6.882,7.414,12.236c0.16,1.719-0.155,3.351-0.095,5.025   C62.21,45.814,62.191,46.386,61.618,46.73z M32.262,83.79c-1.07-0.019-1.975,0.717-2.03,1.65c-0.045,0.756,0.977,1.737,1.819,1.746   c1.073,0.011,1.967-0.75,1.978-1.684C34.04,84.481,33.347,83.809,32.262,83.79z M14.266,87.806   c0.013,1.181,0.567,1.757,1.677,1.741c1.151-0.016,1.799-0.683,1.766-1.817c-0.03-1.038-0.707-1.614-1.861-1.585   C14.711,86.173,14.254,86.653,14.266,87.806z" fill="#000000"/>
	<path id="XMLID_1023_" d="M82.425,55.417c0.009-1.321-0.07-2.642,0.101-3.964   c0.447-3.465,2.179-6.322,4.221-9.023c1.268-1.678,2.915-2.982,4.569-4.264c0.306-0.237,0.688-0.576,1.033-0.276   c0.397,0.345,0.071,0.791-0.123,1.163c-0.807,1.544-2.239,2.545-3.365,3.809c-2.192,2.46-3.649,5.209-4.27,8.485   c-0.322,1.7-0.455,3.368-0.415,5.072c0.045,1.924,0.46,2.167,2.197,1.486c2.796-1.095,5.607,0.802,5.885,3.635   c0.154,1.579-0.907,2.817-2.054,3.852c-1.016,0.918-1.006,1.023,0.036,1.922c5.09,4.389,10.998,5.649,17.509,4.601   c4.596-0.74,8.681-2.581,11.925-5.967c2.09-2.182,3.767-4.685,4.872-7.537c0.378-0.976,0.282-1.484-0.88-1.831   c-2.054-0.614-3.108-2.195-3.343-4.292c-0.213-1.895,0.926-4.033,2.557-4.879c0.615-0.319,1.205-0.719,1.923-0.789   c0.994-0.096,1.233-0.699,1.013-1.556c-0.553-2.149-1.392-4.171-2.624-6.035c-1.599-2.42-3.515-4.547-5.957-6.096   c-1.772-1.125-3.541-2.238-5.56-3.016c-1.911-0.737-3.888-1.009-5.815-1.552c-1.35-0.38-2.837-0.373-4.171-0.058   c-2.096,0.495-4.299,0.591-6.268,1.651c-2.395,1.288-4.555,2.809-6.427,4.825c-2.055,2.214-3.217,4.995-5.054,7.336   c-1.527,1.946-3.122,3.817-4.937,5.506c-1.8,1.675-3.809,3.018-6.026,4.063c-0.175,0.083-0.342,0.211-0.526,0.242   c-1.985,0.343-3.966,0.879-5.961,0.939c-1.633,0.05-3.291-0.436-4.926-0.747c-2.318-0.441-4.362-1.519-6.253-2.89   c-1.204-0.873-1.727-0.766-2.219,0.651c-1.436,4.138-4.275,6.995-8.058,9.055c-2.859,1.557-5.932,2.398-9.094,3.032   c-2.728,0.547-5.464,1.077-8.096,2.024c-0.691,0.249-1.394,0.496-2.155,0.459c-0.44-0.021-0.782-0.211-0.889-0.623   c-0.138-0.53,0.34-0.63,0.686-0.769c2.293-0.922,4.585-1.816,6.793-2.966c2.393-1.246,4.572-2.718,6.599-4.483   c3.3-2.872,5.345-6.443,6.619-10.608c0.921-3.012,0.929-6.041,0.928-9.103c-0.001-2.024-0.072-4.047-0.081-6.071   c-0.001-0.303-0.152-0.802,0.349-0.851c0.366-0.036,0.625,0.275,0.732,0.646c0.257,0.892,0.569,1.773,0.757,2.679   c0.694,3.357,2.241,6.281,4.251,9.033c1.158,1.585,2.475,2.987,3.939,4.253c2.983,2.58,6.494,3.692,10.415,3.458   c2.756-0.165,5.316-0.968,7.568-2.618c0.842-0.617,1.131-1.653,0.595-2.322c-0.619-0.773-1.454-0.631-2.225-0.292   c-0.937,0.413-1.507,1.206-1.829,2.154c-0.14,0.413-0.289,0.817-0.57,1.137c-0.387,0.441-0.795,0.411-0.903-0.207   c-0.372-2.118-0.47-4.206,1.258-5.872c1.653-1.594,3.618-1.618,5.654-0.985c0.824,0.256,1.467,0.886,2.039,1.492   c0.518,0.549,0.734,0.69,1.334,0.047c1.127-1.21,1.823-2.667,2.641-4.057c0.295-0.502-0.005-0.696-0.504-0.719   c-0.699-0.033-1.397-0.117-2.096-0.131c-4.396-0.09-7.485-2.569-10.298-5.584c-1.594-1.707-3.437-3-5.878-3.1   c-1.088-0.044-2.181-0.023-3.269,0.017c-0.879,0.032-1.131-0.328-0.84-1.132c0.819-2.27,2.179-4.159,4.026-5.702   c1.508-1.26,3.245-2.085,5.105-2.681c1.108-0.355,2.284-0.391,3.349-0.13c3.66,0.896,7.119,2.244,10.028,4.792   c1.311,1.148,2.598,2.312,3.801,3.566c0.364,0.38,0.631,0.432,1.082,0.179c2.162-1.21,4.381-2.3,6.742-3.075   c0.294-0.097,0.586-0.216,0.889-0.266c3.139-0.525,6.296-1.228,9.477-0.757c3.122,0.463,6.197,1.163,9.154,2.421   c2.903,1.235,5.325,3.102,7.511,5.243c1.664,1.631,3.067,3.532,4.262,5.601c1.276,2.209,2.214,4.538,2.85,6.951   c0.715,2.714,0.693,5.546,0.518,8.357c-0.212,3.424-1.276,6.632-2.735,9.667c-1.327,2.759-3.28,5.137-5.548,7.225   c-2.472,2.276-5.245,4.165-8.325,5.431c-3.247,1.334-6.711,1.882-10.267,1.607c-4.762-0.368-9.087-2.065-13.306-4.174   c-1.973-0.987-3.82-2.262-5.855-3.048c-2.434-0.94-4.951-1.889-7.696-1.437c-0.839,0.138-1.706,0.141-2.56,0.149   c-1.127,0.011-1.389-0.405-0.917-1.443c0.584-1.282,1.473-2.326,2.479-3.318c2.177-2.149,4.888-2.587,7.742-2.547   c0.918,0.013,1.262-0.195,1.175-1.153C82.356,57.369,82.425,56.39,82.425,55.417z M81.958,30.265   c-0.017-1.519-0.803-2.298-2.309-2.289c-1.367,0.008-2.281,0.966-2.265,2.372c0.018,1.515,0.8,2.256,2.347,2.225   C81.325,32.54,81.976,31.864,81.958,30.265z" fill="#000000"/>
	<path id="XMLID_1020_" d="M87.247,124.031c1.408-0.715,2.084-2.032,2.806-3.231   c2.273-3.773,3.95-7.768,3.333-12.31c-0.39-2.873-1.123-5.65-2.474-8.285c-1.214-2.367-2.872-4.393-4.336-6.57   c-0.536-0.797-0.964-1.69-1.305-2.59c-1.229-3.242-1.963-6.584-1.208-10.043c0.606-2.777,1.702-5.387,3.312-7.753   c0.251-0.368,0.67-0.716,1.06-0.522c0.378,0.189,0.188,0.72,0.064,1.071c-0.566,1.601-1.311,3.154-1.717,4.792   c-0.528,2.126-0.947,4.322,0.228,6.423c0.434,0.775,1.11,1.059,1.956,0.946c0.886-0.118,1.461-0.649,1.818-1.457   c0.557-1.261,0.229-3.685-1.781-4.899c-0.367-0.221-0.892-0.418-0.807-0.888c0.104-0.573,0.755-0.478,1.176-0.537   c3.421-0.48,6.779,2.591,5.925,6.92c-0.57,2.892-2.632,4.361-5.137,5.341c-0.889,0.348-0.902,0.681-0.376,1.313   c1.415,1.698,3.23,2.86,5.154,3.881c0.469,0.249,0.705,0.1,0.847-0.392c0.684-2.374,1.755-4.555,3.558-6.274   c1.252-1.194,2.545-2.331,4.255-2.947c2.248-0.809,4.501-1.7,6.341-3.289c1.22-1.053,2.047-2.409,2.345-4.035   c0.035-0.191,0.033-0.388,0.061-0.581c0.086-0.58,0.128-1.308,0.776-1.44c0.703-0.142,0.764,0.628,0.968,1.097   c1.083,2.485,1.777,5.136,1.514,7.791c-0.298,3.007-0.974,5.956-2.704,8.643c-2.688,4.174-6.232,7.094-10.916,8.67   c-0.95,0.32-1.441,0.827-1.53,1.997c-0.299,3.956-1.364,7.729-3.058,11.341c-1.629,3.473-3.775,6.545-6.544,9.185   c-2.676,2.55-5.604,4.714-8.996,6.272c-4.11,1.888-8.345,3.09-12.894,3.025c-3.131-0.045-6.121-0.714-9.094-1.725   c-2.316-0.787-4.57-1.665-6.748-2.761c-1.556-0.782-2.954-1.815-4.381-2.794c-3.345-2.296-6.757-4.301-11.077-3.453   c-0.377,0.074-0.777,0.059-1.165,0.047c-0.333-0.011-0.772,0.158-0.961-0.211c-0.192-0.377,0.057-0.782,0.276-1.078   c1.325-1.792,3.013-3.239,5.206-3.627c1.701-0.301,2.497-1.199,2.892-2.672c0.24-0.897,0.793-1.584,1.317-2.294   c0.667-0.905,1.193-0.819,1.633,0.2c0.186,0.431,0.327,0.859,0.394,1.332c0.573,4.019,2.499,7.265,5.65,9.805   c0.332,0.267,0.606,0.292,0.914-0.017c0.799-0.802,1.296-2.692,0.932-3.582c-0.603-1.472-1.277-1.853-3.119-1.91   c-0.603-0.019-1.551,0.39-1.703-0.481c-0.117-0.669,0.662-1.163,1.261-1.52c2.338-1.393,5.2-1.068,6.95,0.764   c2.02,2.115,2.316,4.975,0.788,7.352c-0.398,0.619-0.7,1.291-1.249,1.815c-0.444,0.423-0.217,0.753,0.257,0.988   c3.608,1.786,7.4,2.709,11.655,2.492c-2.893-1.918-3.978-4.565-3.761-7.751c0.088-1.29-0.521-1.78-1.609-2.146   c-3.217-1.082-5.652-4.639-5.452-7.865c0.021-0.336-0.084-0.76,0.281-0.956c0.412-0.222,0.746,0.114,1.059,0.317   c0.289,0.186,0.5,0.491,0.784,0.686c1.824,1.25,3.237,1.119,5.165-0.408c1.792-1.419,3.655-2.74,5.856-3.451   c1.916-0.619,3.713-0.063,5.33,0.925c1.926,1.177,2.852,1.249,4.685,0.019c0.579-0.389,1.188-0.735,1.799-1.072   c0.262-0.144,0.588-0.35,0.862-0.079c0.317,0.314,0.087,0.645-0.086,0.952c-0.785,1.391-2.092,2.272-3.271,3.258   c-2.16,1.805-4.612,3.243-6.535,5.352c-2.17,2.38-3.776,4.994-3.868,8.323c-0.027,0.973-0.012,1.947-0.034,2.92   c-0.016,0.674,0.246,1.011,0.965,0.974c3.467-0.178,6.697-1.174,9.753-2.782c0.342-0.18,0.663-0.401,1.007-0.576   c0.729-0.371,1.549-0.661,1.486-1.71c-0.071-1.169-0.609-2.121-1.62-2.66c-1.673-0.891-3.387-0.007-3.852,1.831   c-0.129,0.511,0.053,1.418-0.707,1.406c-0.868-0.014-0.731-0.929-0.85-1.551c-0.169-0.885-0.276-1.777-0.127-2.67   c0.463-2.76,3.052-4.358,5.809-3.782c2.481,0.518,3.471,2.359,4.332,4.394C87.092,123.505,87.158,123.764,87.247,124.031z    M73.586,115.627c0.004-1.033-0.718-1.724-1.782-1.706c-0.886,0.015-1.841,0.814-1.878,1.572c-0.044,0.899,0.821,1.806,1.733,1.817   C72.834,117.324,73.583,116.67,73.586,115.627z" fill="#000000"/>
	<path id="XMLID_1001_" d="M62.92,15.567c0.348,3.742-3.618,6.705-7.306,5.78   c-0.429-0.108-1.046-0.15-1.129-0.667c-0.086-0.535,0.557-0.553,0.898-0.755c0.605-0.358,1.262-0.713,1.609-1.3   c0.472-0.798,0.655-1.762-0.175-2.455c-0.781-0.653-1.672-0.446-2.497,0.056c-2.431,1.482-4.355,3.436-5.627,6.004   c-0.103,0.207-0.254,0.391-0.383,0.585c-0.171,0.258-0.334,0.607-0.712,0.416c-0.313-0.158-0.169-0.483-0.079-0.73   c0.408-1.119,0.717-2.292,1.268-3.337c2.086-3.962,5.178-6.94,9.061-9.166c4.623-2.65,9.558-4.12,14.886-4.242   c4.445-0.101,8.722,0.739,12.806,2.476c4.737,2.015,8.387,5.365,11.471,9.426c0.638,0.84,1.158,1.732,1.724,2.605   c0.212,0.327,0.534,0.743,0.237,1.051c-0.416,0.431-0.823-0.058-1.08-0.324c-1.021-1.053-2.032-2.122-2.96-3.255   c-1.734-2.118-3.8-3.807-6.231-5.051c-0.877-0.449-1.615-0.213-2.33,0.432c-1.053,0.95-1.954,2.055-3.19,2.82   c-3.042,1.884-6.133,1.582-9.231,0.282c-2.81-1.179-5.449-2.746-8.651-2.852C62.907,13.289,62.912,13.129,62.92,15.567z    M79.246,13.604c0.942,0.021,1.686-0.608,1.745-1.476c0.067-0.982-0.781-1.926-1.73-1.925c-1.094,0.001-1.842,0.66-1.86,1.636   C77.382,12.897,78.094,13.578,79.246,13.604z" fill="#000000"/>
	<path id="XMLID_999_" d="M115.459,67.852c-1.125-0.044-2.028-0.227-2.789-0.633   c-1.492-0.795-3.105-0.93-4.713-1.168c-0.95-0.141-1.853-0.456-2.846-0.484c-3.856-0.109-7.455,0.683-10.748,2.737   c-0.13,0.081-0.281,0.133-0.428,0.184c-0.36,0.125-0.839,0.39-1.066,0.033c-0.233-0.366,0.261-0.615,0.492-0.912   c0.939-1.211,2.087-2.21,2.863-3.608c1.631-2.94-0.501-6.248-2.736-7.616c-1.301-0.797-2.74-1.108-4.206-1.217   c-0.985-0.074-1.879-0.45-2.838-0.565c-0.234-0.028-0.51-0.083-0.546-0.349c-0.035-0.254,0.245-0.364,0.404-0.528   c0.353-0.362,0.829-0.478,1.277-0.51c2.472-0.179,4-2.215,4.155-4.795c0.148-2.479,0.571-4.941,1.192-7.327   c0.636-2.445,1.383-4.901,2.791-7.066c0.257-0.394,0.558-0.876,1.075-0.753c0.593,0.14,0.439,0.758,0.445,1.19   c0.046,3.046,0.6,6.026,1.372,8.945c0.83,3.139,2.172,6.079,3.737,8.949c2.134,3.913,4.977,7.218,8.14,10.269   c1.243,1.2,2.723,2.143,3.838,3.512C114.725,66.632,115.023,67.141,115.459,67.852z" fill="#000000"/>
	<path id="XMLID_995_" d="M43.815,35.433c-1.298,1.014-2.683,1.742-3.764,2.854   c-1.733,1.783-1.949,3.973-1.579,6.293c0.147,0.921,0.325,1.838,0.498,2.755c0.6,3.186-1.168,4.893-4.108,5.182   c-0.808,0.08-1.657,0.117-2.442-0.043c-1.031-0.21-1.225,0.304-1.266,1.101c-0.081,1.553-0.148,3.107-0.238,4.66   c-0.017,0.289,0.139,0.686-0.231,0.829c-0.33,0.127-0.597-0.141-0.794-0.376c-0.998-1.187-1.847-2.438-2.467-3.9   c-0.955-2.255-1.389-4.655-2.216-6.936c-0.711-1.962-2.132-3.372-3.8-4.542c-2.28-1.6-2.205-1.098-0.728-3.181   c1.897-2.676,5.723-3.226,8.322-1.696c0.744,0.438,1.222,0.206,1.814-0.37c3.147-3.065,6.796-4.673,11.283-3.653   C42.759,34.56,43.323,34.846,43.815,35.433z M32.281,47.762c1.179,0.004,1.747-0.524,1.773-1.646   c0.026-1.117-0.628-1.759-1.808-1.777c-1.063-0.016-1.598,0.539-1.602,1.661C30.639,47.187,31.17,47.759,32.281,47.762z" fill="#000000"/>
	<path id="XMLID_992_" d="M101.802,34.713c3.208,0.117,6.342,0.726,9.472,1.443   c1.536,0.352,3.185,0.337,4.735-0.078c0.832-0.222,1.674-0.309,2.506-0.486c0.841-0.18,1.08,0.212,0.759,0.974   c-0.766,1.816-1.874,3.398-3.44,4.594c-0.629,0.48-0.85,0.732-0.208,1.402c1.552,1.621,2.501,3.609,3.188,5.726   c0.295,0.909,0.231,1.86,0.158,2.779c-0.205,2.595-0.952,4.996-2.746,6.984c-0.697,0.773-0.969,0.498-1.191-0.353   c-0.329-1.261-0.564-2.521-1.105-3.759c-0.865-1.98-2.496-2.979-4.129-4.051c-1.77-1.162-3.764-1.956-5.401-3.344   c-1.361-1.153-2.416-2.54-2.911-4.231c-0.42-1.435-0.962-2.87-0.899-4.422c0.033-0.821-0.308-1.327-1.247-1.272   c-0.451,0.027-1.022,0.036-0.995-0.661c0.025-0.634,0.308-1.176,1.007-1.231C100.167,34.665,100.986,34.713,101.802,34.713z    M109.499,41.721c-0.017-1.034-0.756-1.783-1.747-1.769c-1.017,0.014-1.868,0.88-1.829,1.862c0.037,0.933,0.794,1.649,1.743,1.648   C108.876,43.463,109.517,42.853,109.499,41.721z" fill="#000000"/>
	<path id="XMLID_991_" d="M64.063,71.716c-4.216-0.277-7.828-1.711-10.023-5.599   c-0.488-0.864-1.08-0.592-1.681-0.44c-3.864,0.981-7.714,1.297-11.581-0.008c-0.905-0.305-1.945-0.22-2.685-0.988   c-0.182-0.188-0.555-0.299-0.445-0.607c0.137-0.387,0.538-0.225,0.817-0.189c2.086,0.263,4.175,0.453,6.28,0.422   c2.371-0.035,4.733-0.102,7-0.941c0.489-0.181,0.985-0.298,1.146-0.864c0.167-0.588-0.215-0.994-0.598-1.298   c-1.316-1.044-1.925-2.369-1.868-4.05c0.092-2.719,1.91-4.098,4.568-3.431c1.631,0.409,3.066-0.105,4.399-1   c0.256-0.172,0.459-0.505,0.784-0.239c0.277,0.227,0.168,0.588,0.08,0.878c-0.951,3.113-0.568,6.175,0.606,9.106   c1.028,2.567,2.898,4.528,5.277,5.95c0.76,0.455,1.444,1.051,2.321,1.315c0.2,0.06,0.459,0.253,0.504,0.431   c0.084,0.34-0.289,0.443-0.513,0.527C67.041,71.22,65.68,71.977,64.063,71.716z" fill="#000000"/>
</g>
<g>
</g>
<g>
</g>
<g>
</g>
<g>
</g>
<g>
</g>
<g>
</g>
<g>
</g>
<g>
</g>
<g>
</g>
<g>
</g>
<g>
</g>
<g>
</g>
<g>
</g>
<g>
</g>
<g>
</g>
</svg>
