<?xml version="1.0" encoding="utf-8"?>
<!-- Generator: Adobe Illustrator 21.1.0, SVG Export Plug-In . SVG Version: 6.00 Build 0)  -->
<svg version="1.1" id="Layer_1" xmlns="http://www.w3.org/2000/svg" xmlns:xlink="http://www.w3.org/1999/xlink" x="0px" y="0px"
	 viewBox="0 0 1138 141.1" style="enable-background:new 0 0 1138 141.1;" xml:space="preserve">
<style type="text/css">
	.st0{fill:none;}
	.st1{fill:none;stroke:#FFFFFF;stroke-width:1.25;}
	.st2{fill:#00B2DB;}
	.st3{opacity:0.56;}
	.st4{opacity:0.5;fill:url(#SVGID_1_);enable-background:new    ;}
</style>
<pattern  y="100" width="50.7" height="58.5" patternUnits="userSpaceOnUse" id="Waves_Color" viewBox="61 -64.5 50.7 58.5" style="overflow:visible;">
	<g>
		<rect x="61" y="-64.5" class="st0" width="50.7" height="58.5"/>
		<g>
			<path class="st1" d="M172.8-41.6c-2,2.3-6,4.6-17.3-5.5c-5-4.4-9.1-4.8-11.5-3.3c-1.5,0.9-2.2,2.9-1.8,3.9
				c0.5,1.7,2.1,2.3,3.3,1.5c-1.1-0.7-0.7-2.2,1-1.9c2.4,0.5,2.2,3.7,0.8,5.3c-2,2.3-6,4.6-17.3-5.5c-5-4.4-9.1-4.8-11.5-3.3
				c-1.5,0.9-2.2,2.9-1.8,3.9c0.5,1.7,2.1,2.3,3.3,1.5c-1.1-0.7-0.7-2.2,1-1.9c2.4,0.5,2.2,3.7,0.8,5.3c-2,2.3-6,4.6-17.3-5.5"/>
			<path class="st1" d="M164-27.6c-5-4.4-9.1-4.8-11.5-3.3c-1.5,0.9-2.1,2.9-1.8,3.9c0.5,1.7,2.1,2.3,3.3,1.5
				c-1.1-0.7-0.7-2.2,1-1.9c2.4,0.5,2.2,3.7,0.8,5.3c-2,2.3-6,4.6-17.3-5.5c-5-4.4-9.1-4.8-11.5-3.3c-1.5,0.9-2.2,2.9-1.8,3.9
				c0.5,1.7,2.1,2.3,3.3,1.5c-1.1-0.7-0.7-2.2,1-1.9c2.4,0.5,2.2,3.7,0.8,5.3c-2,2.3-6,4.6-17.3-5.5c-5-4.4-9.1-4.8-11.5-3.3"/>
			<path class="st1" d="M172.5-8.1c-5-4.4-9.1-4.8-11.5-3.3c-1.5,0.9-2.1,2.9-1.8,3.9c0.5,1.7,2.1,2.3,3.3,1.5
				c-1.1-0.7-0.7-2.2,1-1.9c2.4,0.5,2.2,3.7,0.8,5.3c-2,2.3-6,4.6-17.3-5.5c-5-4.4-9.1-4.8-11.5-3.3c-1.5,0.9-2.1,2.9-1.8,3.9
				c0.5,1.7,2.1,2.3,3.3,1.5c-1.1-0.7-0.7-2.2,1-1.9c2.4,0.5,2.2,3.7,0.8,5.3c-2,2.3-6,4.6-17.3-5.5c-5-4.4-9.1-4.8-11.5-3.3
				c-1.5,0.9-2.1,2.9-1.8,3.9c0.5,1.7,2.1,2.3,3.3,1.5c-1.1-0.7-0.7-2.2,1-1.9c2.4,0.5,2.2,3.7,0.8,5.3"/>
		</g>
		<g>
			<rect x="61" y="-64.5" class="st2" width="50.7" height="58.5"/>
			<path class="st1" d="M122.1-41.6c-2,2.3-6,4.6-17.3-5.5c-5-4.4-9.1-4.8-11.5-3.3c-1.5,0.9-2.2,2.9-1.8,3.9
				c0.5,1.7,2.1,2.3,3.3,1.5c-1.1-0.7-0.7-2.2,1-1.9c2.4,0.5,2.2,3.7,0.8,5.3c-2,2.3-6,4.6-17.3-5.5c-5-4.4-9.1-4.8-11.5-3.3
				c-1.5,0.9-2.1,2.9-1.8,3.9c0.5,1.7,2.1,2.3,3.3,1.5c-1.1-0.7-0.7-2.2,1-1.9c2.4,0.5,2.2,3.7,0.8,5.3c-2,2.3-6,4.6-17.3-5.5"/>
			<path class="st1" d="M113.3-27.6c-5-4.4-9.1-4.8-11.5-3.3C100.3-30,99.7-28,100-27c0.5,1.7,2.1,2.3,3.3,1.5
				c-1.1-0.7-0.7-2.2,1-1.9c2.4,0.5,2.2,3.7,0.8,5.3c-2,2.3-6,4.6-17.3-5.5c-5-4.4-9.1-4.8-11.5-3.3C74.9-30,74.3-28,74.6-27
				c0.5,1.7,2.1,2.3,3.3,1.5c-1.1-0.7-0.7-2.2,1-1.9c2.4,0.5,2.2,3.7,0.8,5.3c-2,2.3-6,4.6-17.3-5.5c-5-4.4-9.1-4.8-11.5-3.3"/>
			<path class="st1" d="M121.7-8.1c-5-4.4-9.1-4.8-11.5-3.3c-1.5,0.9-2.1,2.9-1.8,3.9c0.5,1.7,2.1,2.3,3.3,1.5
				c-1.1-0.7-0.7-2.2,1-1.9c2.4,0.5,2.2,3.7,0.8,5.3c-2,2.3-6,4.6-17.3-5.5c-5-4.4-9.1-4.8-11.5-3.3c-1.5,0.9-2.1,2.9-1.8,3.9
				c0.5,1.7,2.1,2.3,3.3,1.5c-1.1-0.7-0.7-2.2,1-1.9c2.4,0.5,2.2,3.7,0.8,5.3c-2,2.3-6,4.6-17.3-5.5c-5-4.4-9.1-4.8-11.5-3.3
				c-1.5,0.9-2.1,2.9-1.8,3.9C58.3-5.8,59.8-5.2,61-6c-1.1-0.7-0.7-2.2,1-1.9c2.4,0.5,2.2,3.7,0.8,5.3"/>
		</g>
		<g>
			<path class="st1" d="M71.4-41.6c-2,2.3-6,4.6-17.3-5.5c-5-4.4-9.1-4.8-11.5-3.3c-1.5,0.9-2.2,2.9-1.8,3.9
				c0.5,1.7,2.1,2.3,3.3,1.5c-1.1-0.7-0.7-2.2,1-1.9c2.4,0.5,2.2,3.7,0.8,5.3c-2,2.3-6,4.6-17.3-5.5c-5-4.4-9.1-4.8-11.5-3.3
				c-1.5,0.9-2.1,2.9-1.8,3.9c0.5,1.7,2.1,2.3,3.3,1.5c-1.1-0.7-0.7-2.2,1-1.9c2.4,0.5,2.2,3.7,0.8,5.3c-2,2.3-6,4.6-17.3-5.5"/>
			<path class="st1" d="M62.5-27.6c-5-4.4-9.1-4.8-11.5-3.3C49.6-30,48.9-28,49.3-27c0.5,1.7,2.1,2.3,3.3,1.5
				c-1.1-0.7-0.7-2.2,1-1.9c2.4,0.5,2.2,3.7,0.8,5.3c-2,2.3-6,4.6-17.3-5.5c-5-4.4-9.1-4.8-11.5-3.3C24.2-30,23.6-28,23.9-27
				c0.5,1.7,2.1,2.3,3.3,1.5c-1.1-0.7-0.7-2.2,1-1.9c2.4,0.5,2.2,3.7,0.8,5.3c-2,2.3-6,4.6-17.3-5.5c-5-4.4-9.1-4.8-11.5-3.3"/>
			<path class="st1" d="M71-8.1c-5-4.4-9.1-4.8-11.5-3.3c-1.5,0.9-2.1,2.9-1.8,3.9C58.3-5.8,59.8-5.2,61-6c-1.1-0.7-0.7-2.2,1-1.9
				c2.4,0.5,2.2,3.7,0.8,5.3c-2,2.3-6,4.6-17.3-5.5c-5-4.4-9.1-4.8-11.5-3.3c-1.5,0.9-2.1,2.9-1.8,3.9c0.5,1.7,2.1,2.3,3.3,1.5
				c-1.1-0.7-0.7-2.2,1-1.9c2.4,0.5,2.2,3.7,0.8,5.3c-2,2.3-6,4.6-17.3-5.5c-5-4.4-9.1-4.8-11.5-3.3C7.3-10.5,6.6-8.5,7-7.5
				C7.5-5.8,9.1-5.2,10.3-6c-1.1-0.7-0.7-2.2,1-1.9c2.4,0.5,2.2,3.7,0.8,5.3"/>
		</g>
		<g>
			<path class="st1" d="M172.5-66.6c-5-4.4-9.1-4.8-11.5-3.3c-1.5,0.9-2.1,2.9-1.8,3.9c0.5,1.7,2.1,2.3,3.3,1.5
				c-1.1-0.7-0.7-2.2,1-1.9c2.4,0.5,2.2,3.7,0.8,5.3c-2,2.3-6,4.6-17.3-5.5c-5-4.4-9.1-4.8-11.5-3.3c-1.5,0.9-2.1,2.9-1.8,3.9
				c0.5,1.7,2.1,2.3,3.3,1.5c-1.1-0.7-0.7-2.2,1-1.9c2.4,0.5,2.2,3.7,0.8,5.3c-2,2.3-6,4.6-17.3-5.5c-5-4.4-9.1-4.8-11.5-3.3
				c-1.5,0.9-2.1,2.9-1.8,3.9c0.5,1.7,2.1,2.3,3.3,1.5c-1.1-0.7-0.7-2.2,1-1.9c2.4,0.5,2.2,3.7,0.8,5.3"/>
		</g>
		<g>
			<path class="st1" d="M121.7-66.6c-5-4.4-9.1-4.8-11.5-3.3c-1.5,0.9-2.1,2.9-1.8,3.9c0.5,1.7,2.1,2.3,3.3,1.5
				c-1.1-0.7-0.7-2.2,1-1.9c2.4,0.5,2.2,3.7,0.8,5.3c-2,2.3-6,4.6-17.3-5.5c-5-4.4-9.1-4.8-11.5-3.3C83.4-69,82.8-67,83.1-66
				c0.5,1.7,2.1,2.3,3.3,1.5c-1.1-0.7-0.7-2.2,1-1.9c2.4,0.5,2.2,3.7,0.8,5.3c-2,2.3-6,4.6-17.3-5.5c-5-4.4-9.1-4.8-11.5-3.3
				C58-69,57.4-67,57.7-66c0.5,1.7,2.1,2.3,3.3,1.5c-1.1-0.7-0.7-2.2,1-1.9c2.4,0.5,2.2,3.7,0.8,5.3"/>
		</g>
		<g>
			<path class="st1" d="M71-66.6c-5-4.4-9.1-4.8-11.5-3.3C58-69,57.4-67,57.7-66c0.5,1.7,2.1,2.3,3.3,1.5c-1.1-0.7-0.7-2.2,1-1.9
				c2.4,0.5,2.2,3.7,0.8,5.3c-2,2.3-6,4.6-17.3-5.5c-5-4.4-9.1-4.8-11.5-3.3C32.7-69,32-67,32.3-66c0.5,1.7,2.1,2.3,3.3,1.5
				c-1.1-0.7-0.7-2.2,1-1.9c2.4,0.5,2.2,3.7,0.8,5.3c-2,2.3-6,4.6-17.3-5.5c-5-4.4-9.1-4.8-11.5-3.3C7.3-69,6.6-67,7-66
				c0.5,1.7,2.1,2.3,3.3,1.5c-1.1-0.7-0.7-2.2,1-1.9c2.4,0.5,2.2,3.7,0.8,5.3"/>
		</g>
	</g>
</pattern>
<g id="Layer_2" class="st3">
	<pattern  id="SVGID_1_" xlink:href="#Waves_Color" patternTransform="matrix(1.1113 0 0 1.4112 838.9918 3352.7378)"  class="st3">
	</pattern>
	<rect y="0" class="st4" width="1138" height="141.1"/>
</g>
</svg>
